<mxfile host="65bd71144e">
    <diagram id="oQpwD24b6fPKXtMdtyyB" name="Page-1">
        <mxGraphModel dx="915" dy="639" grid="1" gridSize="10" guides="1" tooltips="1" connect="1" arrows="1" fold="1" page="1" pageScale="1" pageWidth="827" pageHeight="1169" math="0" shadow="0">
            <root>
                <mxCell id="0"/>
                <mxCell id="1" parent="0"/>
                <mxCell id="4" value="" style="edgeStyle=none;html=1;fontSize=20;fontColor=#1A1A1A;" edge="1" parent="1" source="2" target="3">
                    <mxGeometry relative="1" as="geometry"/>
                </mxCell>
                <mxCell id="6" value="" style="edgeStyle=none;html=1;fontSize=20;fontColor=#1A1A1A;" edge="1" parent="1" source="2" target="5">
                    <mxGeometry relative="1" as="geometry"/>
                </mxCell>
                <mxCell id="7" value="" style="edgeStyle=none;html=1;fontSize=20;fontColor=#1A1A1A;" edge="1" parent="1" source="2" target="5">
                    <mxGeometry relative="1" as="geometry"/>
                </mxCell>
                <mxCell id="8" value="" style="edgeStyle=none;html=1;fontSize=20;fontColor=#1A1A1A;" edge="1" parent="1" source="2" target="5">
                    <mxGeometry relative="1" as="geometry"/>
                </mxCell>
                <mxCell id="10" value="" style="edgeStyle=none;html=1;fontSize=20;fontColor=#1A1A1A;" edge="1" parent="1" source="2" target="9">
                    <mxGeometry relative="1" as="geometry"/>
                </mxCell>
                <mxCell id="11" value="" style="edgeStyle=none;html=1;fontSize=20;fontColor=#1A1A1A;" edge="1" parent="1" source="2" target="9">
                    <mxGeometry relative="1" as="geometry"/>
                </mxCell>
                <mxCell id="12" value="" style="edgeStyle=none;html=1;fontSize=20;fontColor=#1A1A1A;" edge="1" parent="1" source="2" target="5">
                    <mxGeometry relative="1" as="geometry"/>
                </mxCell>
                <mxCell id="14" value="" style="edgeStyle=none;html=1;fontSize=20;fontColor=#1A1A1A;" edge="1" parent="1" source="2" target="13">
                    <mxGeometry relative="1" as="geometry"/>
                </mxCell>
                <mxCell id="2" value="&lt;p style=&quot;line-height: 120%;&quot;&gt;&lt;font style=&quot;font-size: 20px;&quot; color=&quot;#1a1a1a&quot;&gt;main_menu&lt;/font&gt;&lt;/p&gt;&lt;p style=&quot;line-height: 120%;&quot;&gt;&lt;font style=&quot;font-size: 20px;&quot; color=&quot;#1a1a1a&quot;&gt;4 options&lt;/font&gt;&lt;/p&gt;" style="rhombus;whiteSpace=wrap;html=1;fillColor=#fad7ac;strokeColor=#b46504;" vertex="1" parent="1">
                    <mxGeometry x="320" y="10" width="186" height="110" as="geometry"/>
                </mxCell>
                <mxCell id="18" value="" style="edgeStyle=none;html=1;fontSize=15;fontColor=#1A1A1A;entryX=0.5;entryY=0;entryDx=0;entryDy=0;" edge="1" parent="1" source="3" target="17">
                    <mxGeometry relative="1" as="geometry"/>
                </mxCell>
                <mxCell id="447" value="" style="edgeStyle=none;html=1;fontSize=15;fontColor=#1A1A1A;entryX=0;entryY=1;entryDx=0;entryDy=0;" edge="1" parent="1" source="3" target="13">
                    <mxGeometry relative="1" as="geometry"/>
                </mxCell>
                <mxCell id="3" value="&lt;p style=&quot;line-height: 120%;&quot;&gt;&lt;font color=&quot;#1a1a1a&quot;&gt;&lt;span style=&quot;font-size: 20px;&quot;&gt;option 1&lt;/span&gt;&lt;/font&gt;&lt;/p&gt;&lt;p style=&quot;line-height: 30%;&quot;&gt;&lt;font style=&quot;font-size: 15px;&quot; color=&quot;#1a1a1a&quot;&gt;Choose 2 artists from&amp;nbsp;&lt;/font&gt;&lt;/p&gt;&lt;p style=&quot;line-height: 30%;&quot;&gt;&lt;font style=&quot;font-size: 15px;&quot; color=&quot;#1a1a1a&quot;&gt;the list&lt;/font&gt;&lt;/p&gt;" style="rhombus;whiteSpace=wrap;html=1;fillColor=#fad7ac;strokeColor=#b46504;" vertex="1" parent="1">
                    <mxGeometry x="50" y="210" width="186" height="110" as="geometry"/>
                </mxCell>
                <mxCell id="445" value="" style="edgeStyle=none;html=1;fontSize=15;fontColor=#1A1A1A;entryX=0.5;entryY=0;entryDx=0;entryDy=0;" edge="1" parent="1" source="5" target="446">
                    <mxGeometry relative="1" as="geometry">
                        <mxPoint x="540" y="360" as="targetPoint"/>
                    </mxGeometry>
                </mxCell>
                <mxCell id="448" value="" style="edgeStyle=none;html=1;fontSize=15;fontColor=#1A1A1A;entryX=0;entryY=1;entryDx=0;entryDy=0;" edge="1" parent="1" source="5" target="13">
                    <mxGeometry relative="1" as="geometry"/>
                </mxCell>
                <mxCell id="5" value="&lt;p style=&quot;line-height: 14.4px;&quot;&gt;&lt;font color=&quot;#1a1a1a&quot;&gt;&lt;span style=&quot;font-size: 20px;&quot;&gt;option 2&lt;/span&gt;&lt;/font&gt;&lt;/p&gt;&lt;p style=&quot;line-height: 3.6px;&quot;&gt;&lt;font style=&quot;font-size: 15px;&quot; color=&quot;#1a1a1a&quot;&gt;Choose a song from&amp;nbsp;&lt;/font&gt;&lt;/p&gt;&lt;p style=&quot;line-height: 3.6px;&quot;&gt;&lt;font style=&quot;font-size: 15px;&quot; color=&quot;#1a1a1a&quot;&gt;the list&lt;/font&gt;&lt;/p&gt;" style="rhombus;whiteSpace=wrap;html=1;fillColor=#fad7ac;strokeColor=#b46504;" vertex="1" parent="1">
                    <mxGeometry x="321" y="210" width="186" height="110" as="geometry"/>
                </mxCell>
                <mxCell id="449" value="" style="edgeStyle=none;html=1;fontSize=15;fontColor=#1A1A1A;" edge="1" parent="1" source="9" target="13">
                    <mxGeometry relative="1" as="geometry"/>
                </mxCell>
                <mxCell id="9" value="&lt;p style=&quot;line-height: 14.4px;&quot;&gt;&lt;font color=&quot;#1a1a1a&quot;&gt;&lt;span style=&quot;font-size: 20px;&quot;&gt;option 3&lt;/span&gt;&lt;/font&gt;&lt;/p&gt;&lt;p style=&quot;line-height: 3.6px;&quot;&gt;&lt;font color=&quot;#1a1a1a&quot;&gt;&lt;span style=&quot;font-size: 15px;&quot;&gt;Get rec...s from&lt;/span&gt;&lt;/font&gt;&lt;/p&gt;&lt;p style=&quot;line-height: 3.6px;&quot;&gt;&lt;font color=&quot;#1a1a1a&quot;&gt;&lt;span style=&quot;font-size: 15px;&quot;&gt;Spotify api&lt;/span&gt;&lt;/font&gt;&lt;/p&gt;" style="rhombus;whiteSpace=wrap;html=1;fillColor=#fad7ac;strokeColor=#b46504;" vertex="1" parent="1">
                    <mxGeometry x="620" y="210" width="186" height="110" as="geometry"/>
                </mxCell>
                <mxCell id="13" value="&lt;p style=&quot;line-height: 120%;&quot;&gt;&lt;font color=&quot;#1a1a1a&quot;&gt;&lt;span style=&quot;font-size: 20px;&quot;&gt;option 4 - Exit&lt;/span&gt;&lt;/font&gt;&lt;/p&gt;" style="rhombus;whiteSpace=wrap;html=1;fillColor=#fad7ac;strokeColor=#b46504;" vertex="1" parent="1">
                    <mxGeometry x="620" y="10" width="186" height="110" as="geometry"/>
                </mxCell>
                <mxCell id="17" value="&lt;p style=&quot;line-height: 120%;&quot;&gt;&lt;font color=&quot;#1a1a1a&quot;&gt;&lt;span style=&quot;font-size: 20px;&quot;&gt;option 1&lt;/span&gt;&lt;/font&gt;&lt;/p&gt;&lt;p style=&quot;line-height: 30%;&quot;&gt;&lt;font color=&quot;#1a1a1a&quot;&gt;&lt;span style=&quot;font-size: 15px;&quot;&gt;Compare&amp;nbsp;&lt;/span&gt;&lt;/font&gt;&lt;/p&gt;&lt;p style=&quot;line-height: 30%;&quot;&gt;&lt;font color=&quot;#1a1a1a&quot;&gt;&lt;span style=&quot;font-size: 15px;&quot;&gt;the artists&lt;/span&gt;&lt;/font&gt;&lt;/p&gt;" style="rhombus;whiteSpace=wrap;html=1;fillColor=#fad7ac;strokeColor=#b46504;" vertex="1" parent="1">
                    <mxGeometry x="10" y="400" width="186" height="110" as="geometry"/>
                </mxCell>
                <mxCell id="21" value="&lt;p style=&quot;line-height: 120%;&quot;&gt;&lt;font color=&quot;#1a1a1a&quot;&gt;&lt;span style=&quot;font-size: 20px;&quot;&gt;option 2&lt;/span&gt;&lt;/font&gt;&lt;/p&gt;&lt;p style=&quot;line-height: 30%;&quot;&gt;&lt;font color=&quot;#1a1a1a&quot;&gt;&lt;span style=&quot;font-size: 15px;&quot;&gt;The artists wikis'&lt;/span&gt;&lt;/font&gt;&lt;/p&gt;&lt;p style=&quot;line-height: 30%;&quot;&gt;&lt;font color=&quot;#1a1a1a&quot;&gt;&lt;span style=&quot;font-size: 15px;&quot;&gt;viewer&lt;/span&gt;&lt;/font&gt;&lt;/p&gt;" style="rhombus;whiteSpace=wrap;html=1;fillColor=#fad7ac;strokeColor=#b46504;" vertex="1" parent="1">
                    <mxGeometry x="210" y="400" width="186" height="110" as="geometry"/>
                </mxCell>
                <mxCell id="22" value="" style="edgeStyle=none;html=1;fontSize=15;fontColor=#1A1A1A;entryX=0.5;entryY=0;entryDx=0;entryDy=0;" edge="1" parent="1" target="21">
                    <mxGeometry relative="1" as="geometry">
                        <mxPoint x="166.13351406302945" y="299.99939003727553" as="sourcePoint"/>
                        <mxPoint x="250" y="400" as="targetPoint"/>
                    </mxGeometry>
                </mxCell>
                <mxCell id="446" value="&lt;p style=&quot;line-height: 14.4px;&quot;&gt;&lt;font color=&quot;#1a1a1a&quot;&gt;&lt;span style=&quot;font-size: 20px;&quot;&gt;option 1&lt;/span&gt;&lt;/font&gt;&lt;/p&gt;&lt;p style=&quot;line-height: 3.6px;&quot;&gt;&lt;font style=&quot;font-size: 15px;&quot; color=&quot;#1a1a1a&quot;&gt;Choose a song from&amp;nbsp;&lt;/font&gt;&lt;/p&gt;&lt;p style=&quot;line-height: 3.6px;&quot;&gt;&lt;font style=&quot;font-size: 15px;&quot; color=&quot;#1a1a1a&quot;&gt;the list&lt;/font&gt;&lt;/p&gt;" style="rhombus;whiteSpace=wrap;html=1;fillColor=#fad7ac;strokeColor=#b46504;" vertex="1" parent="1">
                    <mxGeometry x="413.5" y="370" width="186" height="110" as="geometry"/>
                </mxCell>
            </root>
        </mxGraphModel>
    </diagram>
</mxfile>